<svg id="Layer_1" viewBox="0 0 512 512" xmlns="http://www.w3.org/2000/svg" data-name="Layer 1"><path d="m460.7 85.533c-38.5-6.665-90.637-24.339-120.383-70.693a4 4 0 0 0 -3.368-1.84h-161.9a4 4 0 0 0 -3.367 1.84c-29.744 46.354-81.882 64.028-120.382 70.693a4 4 0 0 0 -3.318 3.941v145.7a228.884 228.884 0 0 0 23.886 101.426c14.455 29.508 35.424 57.621 62.325 83.559 29.017 27.962 77.514 63.111 120.45 78.6a4 4 0 0 0 2.714 0c42.949-15.486 91.458-50.637 120.48-78.6 26.9-25.932 47.859-54.045 62.31-83.558a228.981 228.981 0 0 0 23.87-101.429v-145.698a4 4 0 0 0 -3.317-3.941z" fill="#bec7cf"/><path d="m84.53 115.535v119.637c0 62.816 30.76 116 75.011 158.67 24.879 23.985 62.672 51.372 96.459 66.132 33.787-14.76 71.58-42.147 96.459-66.132 44.28-42.666 75.011-95.854 75.011-158.67v-119.637c-41.426-11.387-79.94-32.518-107.07-65.988h-128.773c-27.156 33.47-65.642 54.6-107.1 65.988z" fill="#59abff"/><path d="m162.4 267.113a20.988 20.988 0 1 1 29.261-30.1l40.239 39.556 88.3-87.9a20.986 20.986 0 0 1 29.607 29.751l-102.974 102.4a20.968 20.968 0 0 1 -29.434.2z" fill="#f3f5f9"/><path d="m460.7 85.533c-38.5-6.665-90.637-24.339-120.383-70.693a4 4 0 0 0 -3.368-1.84h-80.943v486a4.017 4.017 0 0 0 1.351-.237c42.949-15.486 91.458-50.637 120.48-78.6 26.9-25.932 47.859-54.045 62.31-83.558a228.981 228.981 0 0 0 23.87-101.429v-145.702a4 4 0 0 0 -3.317-3.941z" fill="#abb3ba"/><path d="m320.4 49.547h-64.4v410.424c33.785-14.76 71.576-42.145 96.453-66.129 44.28-42.666 75.011-95.854 75.011-158.67v-119.637c-41.42-11.387-79.935-32.518-107.064-65.988z" fill="#4a9be5"/><path d="m320.2 188.672-64.194 63.9v59.128l93.8-93.275a20.986 20.986 0 0 0 -29.606-29.753z" fill="#e1e6f0"/></svg>