<svg id="Layer_1" viewBox="0 0 512 512" xmlns="http://www.w3.org/2000/svg" data-name="Layer 1"><g fill-rule="evenodd"><path d="m132.613 444.711c35 31.128 77.8 50.962 122.23 64.642a4.031 4.031 0 0 0 1.153.182 3.982 3.982 0 0 0 1.176-.182c44.434-13.674 87.227-33.512 122.221-64.642 28.816-25.635 49.155-56.166 62.946-92.192 13.616-35.565 19.806-73.792 22.869-111.606 1.653-20.406 2.409-40.889 2.771-61.356.378-21.335.325-42.679.278-64.017q-.024-10.829-.023-21.655a4 4 0 0 0 -3.759-3.984 336.321 336.321 0 0 1 -205.775-87.301 3.973 3.973 0 0 0 -5.387 0 336.343 336.343 0 0 1 -205.776 87.3 3.991 3.991 0 0 0 -3.752 3.984q0 10.827-.032 21.654c-.043 21.339-.095 42.683.283 64.019.363 20.466 1.117 40.951 2.768 61.357 3.06 37.813 9.244 76.04 22.857 111.6 13.792 36.034 34.131 66.563 62.952 92.197z" fill="#d1e7ff"/><path d="m256 270.939a14.6 14.6 0 0 1 7.7 27.011 5.979 5.979 0 0 0 -2.475 7.126l7.905 22.04h-26.239l7.9-22.04a6.036 6.036 0 0 0 -2.474-7.126 14.6 14.6 0 0 1 7.683-27.011zm-21.628 68.182h43.256a6.012 6.012 0 0 0 5.659-8.019l-9.3-25.958a26.611 26.611 0 1 0 -35.947 0l-9.3 25.958a5.985 5.985 0 0 0 5.636 8.019zm-52.855-93.636v107.085a12.058 12.058 0 0 0 12.047 12.03h124.886a12.058 12.058 0 0 0 12.05-12.03v-107.085a12.046 12.046 0 0 0 -12.052-12.028h-124.884a12.046 12.046 0 0 0 -12.051 12.028zm74.483-99.02a53.782 53.782 0 0 1 53.725 53.7v21.285h-107.432v-21.283a53.778 53.778 0 0 1 53.7-53.7zm-62.432 230.14h124.882a24.052 24.052 0 0 0 24.034-24.035v-107.085a24.045 24.045 0 0 0 -20.78-23.8v-21.518a65.708 65.708 0 0 0 -131.416 0v21.514a24.065 24.065 0 0 0 -20.78 23.8v107.089a24.071 24.071 0 0 0 24.056 24.035zm-107.934-248.652c-.35 63.9-.25 141.978 20.56 202.164 22.689 65.657 70.325 108.748 149.8 135.508 79.5-26.76 127.131-69.851 149.813-135.508 20.826-60.186 20.917-138.266 20.574-202.164a378.069 378.069 0 0 1 -170.381-72.902 377.878 377.878 0 0 1 -170.362 72.9zm168.483 349.693a6.065 6.065 0 0 0 1.879.3 6.215 6.215 0 0 0 1.9-.3c84.448-27.981 135.058-73.612 159.252-143.611 22.04-63.738 21.582-145.552 21.192-211.283a5.993 5.993 0 0 0 -5.155-5.911 365.545 365.545 0 0 1 -173.48-74.116 6.02 6.02 0 0 0 -7.4 0 365.6 365.6 0 0 1 -173.491 74.116 6 6 0 0 0 -5.151 5.911c-.38 65.731-.85 147.545 21.191 211.283 24.191 70 74.791 115.63 159.263 143.611zm-200.363-362.088c-.36 171.876-.681 320.386 202.242 383.7 202.943-63.311 202.622-211.821 202.255-383.7 0-5.338-.022-10.7-.022-16.06a346.4 346.4 0 0 1 -202.229-85.892 346.317 346.317 0 0 1 -202.225 85.894q0 8.041-.021 16.06zm77.53 330.648c31.488 28.008 71.716 49.294 122.971 65.059a5.769 5.769 0 0 0 1.741.27 5.918 5.918 0 0 0 1.764-.27c51.251-15.77 91.483-37.051 122.962-65.059 28.478-25.331 49.258-55.742 63.485-92.972 26.416-68.938 26.233-150.913 26.05-237.7q-.035-10.756-.023-21.65a6.012 6.012 0 0 0 -5.636-5.98 334.278 334.278 0 0 1 -204.547-86.785 5.963 5.963 0 0 0 -8.087 0 334.3 334.3 0 0 1 -204.549 86.786 6 6 0 0 0 -5.629 5.98q0 10.894-.033 21.65c-.178 86.786-.359 168.761 26.041 237.7 14.241 37.229 35.006 67.64 63.49 92.971z" fill="#2e58ff"/></g></svg>