<svg id="lineal_-_color" viewBox="0 0 128 128" xmlns="http://www.w3.org/2000/svg" data-name="lineal - color"><path d="m104.34 67.12c-4.05 15.85-14.27 36.84-39.98 46.81a.9607.9607 0 0 1 -.72 0c-25.71-9.97-35.93-30.96-39.98-46.81a98.88 98.88 0 0 1 -2.65-32.24.9875.9875 0 0 1 .85-.87c21.45-2.93 41.29-19.6 41.49-19.77a1 1 0 0 1 1.3 0c.2.17 20.04 16.84 41.49 19.77a.9875.9875 0 0 1 .85.87 98.88 98.88 0 0 1 -2.65 32.24z" fill="#7badd7"/><path d="m104.34 67.12c-4.05 15.85-14.27 36.84-39.98 46.81a.9607.9607 0 0 1 -.72 0 62.3956 62.3956 0 0 1 -33.53-29.86c52.94 13.21 65.64-36.39 68.27-51.7a56.9326 56.9326 0 0 0 7.76 1.64.9875.9875 0 0 1 .85.87 98.88 98.88 0 0 1 -2.65 32.24z" fill="#0677ba"/><path d="m97.46 65.8c-5.1 19.53-16.22 33.16-33.06 40.54a.9021.9021 0 0 1 -.4.09.9677.9677 0 0 1 -.4-.09c-33.27-14.63-36.2-50.67-35.92-65.48a1.0145 1.0145 0 0 1 .77-.96c15.07-3.49 28.37-12.06 34.96-16.86a.99.99 0 0 1 1.18 0c6.59 4.8 19.89 13.37 34.96 16.86a1.0145 1.0145 0 0 1 .77.96 93.3967 93.3967 0 0 1 -2.86 24.94z" fill="#0054aa"/><path d="m97.46 65.8c-5.1 19.53-16.22 33.16-33.06 40.54a.9021.9021 0 0 1 -.4.09.9677.9677 0 0 1 -.4-.09 55.0267 55.0267 0 0 1 -24.4-20.55c39.52 4.94 53.23-28.39 57.73-46.55.87.24 1.74.46 2.62.66a1.0145 1.0145 0 0 1 .77.96 93.3967 93.3967 0 0 1 -2.86 24.94z" fill="#033e93"/><path d="m84.748 61.21-25.63 21.15a1.4484 1.4484 0 0 1 -.13.09 3.9967 3.9967 0 0 1 -5.12-.92l-8.89-10.87a4.0892 4.0892 0 0 1 .29-5.62 3.9183 3.9183 0 0 1 2.99-1.03 3.9932 3.9932 0 0 1 2.8 1.46l6.73 8.22 22.69-19.24a1.0977 1.0977 0 0 1 .14-.09 3.9963 3.9963 0 0 1 5.48 1.41 4.0135 4.0135 0 0 1 -1.35 5.44z" fill="#033e93"/><path d="m83.42 56.81-25.63 21.15a1.4629 1.4629 0 0 1 -.13.09 3.9967 3.9967 0 0 1 -5.12-.92l-8.89-10.87a4.0893 4.0893 0 0 1 .29-5.62 3.918 3.918 0 0 1 2.99-1.03 3.9934 3.9934 0 0 1 2.8 1.46l6.73 8.22 22.69-19.24a1.0986 1.0986 0 0 1 .14-.09 3.9962 3.9962 0 0 1 5.48 1.41 4.0134 4.0134 0 0 1 -1.35 5.44z" fill="#e8f1f8"/><path d="m83.42 56.81-25.63 21.15a1.4629 1.4629 0 0 1 -.13.09 3.9967 3.9967 0 0 1 -5.12-.92l-3.71-4.54c9.17 4.41 32.17-14.59 34.31-22.75a3.9351 3.9351 0 0 1 1.63 1.53 4.0134 4.0134 0 0 1 -1.35 5.44z" fill="#cadeef"/><g fill="#002849"><path d="m64 114a1.0022 1.0022 0 0 1 -.3613-.0674c-25.7085-9.9687-35.9326-30.958-39.9824-46.81a98.93 98.93 0 0 1 -2.65-32.24 1.0007 1.0007 0 0 1 .8579-.873c21.4463-2.9243 41.29-19.6026 41.4878-19.771a1.002 1.002 0 0 1 1.295 0c.1977.1684 20.0415 16.8467 41.4878 19.771a1.0007 1.0007 0 0 1 .8579.873 98.932 98.932 0 0 1 -2.6494 32.24c-4.05 15.8525-14.274 36.8418-39.9825 46.81a1.0022 1.0022 0 0 1 -.3608.0674zm-41.08-78.1221a98.1288 98.1288 0 0 0 2.689 30.8106c5.6962 22.2275 18.6117 37.4453 38.391 45.2383 44.3647-17.4844 41.65-69.1524 41.0781-76.0489-19.5234-2.9609-37.4881-16.7041-41.0781-19.5864-3.59 2.8823-21.5562 16.6255-41.08 19.5864z"/><path d="m64.0024 106.4287a.9942.9942 0 0 1 -.4023-.0849c-33.2661-14.629-36.2036-50.67-35.9229-65.4854a1.001 1.001 0 0 1 .7745-.9561c15.0634-3.4892 28.3691-12.0634 34.9594-16.8637a.9994.9994 0 0 1 1.1778 0c6.59 4.8 19.8945 13.3735 34.9585 16.8637a1.0012 1.0012 0 0 1 .7744.9551 93.3934 93.3934 0 0 1 -2.8662 24.9453c-5.0967 19.5225-16.2168 33.1621-33.0518 40.542a1.0055 1.0055 0 0 1 -.4014.084zm-34.3369-64.7587c-.1533 14.7969 3.1055 48.6563 34.3374 62.6651 16.0205-7.1622 26.6241-20.2941 31.5171-39.0382a91.1525 91.1525 0 0 0 2.8135-23.6269c-14.6563-3.5714-27.5542-11.7174-34.3335-16.5889-6.78 4.872-19.6782 13.0189-34.3345 16.5889z"/><path d="m55.6367 78.5986a3.9857 3.9857 0 0 1 -3.0976-1.4677l-8.8936-10.87a4.0871 4.0871 0 0 1 .294-5.6181 3.95 3.95 0 0 1 2.99-1.0332 4.0161 4.0161 0 0 1 2.8013 1.457l6.728 8.2227 22.6955-19.2356a.99.99 0 0 1 .1382-.0986 4 4 0 0 1 4.13 6.8515l-25.63 21.15a1.1029 1.1029 0 0 1 -.1294.0908 4 4 0 0 1 -2.0264.5512zm-9.0058-17a1.9872 1.9872 0 0 0 -1.3462.5235 2.1177 2.1177 0 0 0 -.0913 2.873l8.894 10.87a2.04 2.04 0 0 0 2.5.4922l25.6191-21.1405a1.0993 1.0993 0 0 1 .1294-.0908 2 2 0 0 0 -.5131-3.66 1.9655 1.9655 0 0 0 -1.4468.1738l-23.4 19.8331a.9787.9787 0 0 1 -.7373.2334 1 1 0 0 1 -.6831-.3633l-7.3725-9.011a1.978 1.978 0 0 0 -1.4014-.7275c-.0503-.0039-.101-.0059-.1508-.0059z"/></g></svg>